<svg xmlns="http://www.w3.org/2000/svg" width="16" height="16" viewBox="0 0 16 16"><g opacity="0.8"><rect width="16" height="16" fill="#fff" opacity="0"/><g transform="translate(1 1)"><path d="M299,377v14h14V377Zm13,13H300V378h12Z" transform="translate(-299 -377)" fill="#fff"/><path d="M301.667,384.6h0l2.666,2.4.667-.6-2.666-2.4L305,381.6l-.667-.6-2.666,2.4h0L301,384h0Z" transform="translate(-299 -377)" fill="#fff"/><path d="M307.667,387l2.666-2.4h0L311,384h0l-.667-.6h0l-2.666-2.4-.667.6,2.666,2.4L307,386.4Z" transform="translate(-299 -377)" fill="#fff"/></g></g></svg>