<svg xmlns="http://www.w3.org/2000/svg" width="16.001" height="16" viewBox="0 0 16.001 16"><g transform="translate(-1383.999 -883)"><rect width="16" height="16" transform="translate(1384 883)" fill="#fff" opacity="0"/><g transform="translate(1383.998 883.5)" fill="none"><path d="M3.612,15.443a.531.531,0,0,1-.746-.592l.83-4.73L.173,6.765a.556.556,0,0,1,.283-.95l4.9-.7L7.538.792a.513.513,0,0,1,.927,0l2.184,4.327,4.9.7a.556.556,0,0,1,.282.95l-3.522,3.356.83,4.73a.531.531,0,0,1-.746.592L8,13.187,3.611,15.443Z" stroke="none"/><path d="M 11.9923849105835 14.11393260955811 L 11.22949981689453 9.766429901123047 L 14.47607898712158 6.67286491394043 L 9.991490364074707 6.035609722137451 L 8.001499176025391 2.092992782592773 L 6.011509895324707 6.035609722137451 L 1.526216983795166 6.672966003417969 L 4.773509979248047 9.766339302062988 L 4.010756015777588 14.11314392089844 L 7.999900341033936 12.06267929077148 L 11.9923849105835 14.11393260955811 M 12.62171649932861 15.49999809265137 C 12.54568672180176 15.50000762939453 12.46735668182373 15.48216724395752 12.39099979400635 15.44299983978271 L 8 13.18699932098389 L 3.611000061035156 15.44299983978271 L 3.612000226974487 15.44299983978271 C 3.226000308990479 15.64099597930908 2.787999868392944 15.29399871826172 2.866000175476074 14.85099983215332 L 3.696000099182129 10.12099933624268 L 0.1730001270771027 6.764999866485596 C -0.1559998691082001 6.450999736785889 0.01500013004988432 5.876999855041504 0.4560001194477081 5.814999580383301 L 5.354000091552734 5.118999481201172 L 7.538000106811523 0.7919996380805969 C 7.735000610351562 0.4019996523857117 8.267999649047852 0.4019996523857117 8.465000152587891 0.7919996380805969 L 10.64900016784668 5.118999481201172 L 15.54699993133545 5.814999580383301 C 15.98799991607666 5.876999855041504 16.15900039672852 6.450999736785889 15.82900047302246 6.764999866485596 L 12.30700016021729 10.12099933624268 L 13.13700008392334 14.85099983215332 C 13.19957065582275 15.20636749267578 12.93003273010254 15.49995994567871 12.62171649932861 15.49999809265137 Z" stroke="none" fill="#111"/></g></g></svg>