<svg xmlns="http://www.w3.org/2000/svg" width="20" height="20" viewBox="0 0 20 20"><g transform="translate(-1834 -792)"><rect width="20" height="20" transform="translate(1834 792)" fill="#999" opacity="0"/><g transform="translate(1836 793)"><path d="M-8523-6948v-12h2v-.109a5.951,5.951,0,0,1,6-5.891,5.944,5.944,0,0,1,6,5.891v.109h2v12Zm2-2h12v-8h-12Zm10-10v-.109a3.952,3.952,0,0,0-4-3.891,3.945,3.945,0,0,0-4,3.891v.109Z" transform="translate(8523 6966)" fill="#999"/><path d="M4,1H0V-1H4Z" transform="translate(6 12)" fill="#999"/></g></g></svg>