<svg xmlns="http://www.w3.org/2000/svg" width="20" height="20" viewBox="0 0 20 20"><g transform="translate(-775 -449)"><rect width="20" height="20" transform="translate(775 449)" fill="#111" opacity="0"/><path d="M7,14a.979.979,0,0,1-1-1c0-1,1-4,5-4s5,3,5,4a.979.979,0,0,1-1,1Zm4-6A3,3,0,1,0,8,5,3,3,0,0,0,11,8ZM5.216,14A2.238,2.238,0,0,1,5,13,4.773,4.773,0,0,1,6.936,9.28,6.325,6.325,0,0,0,5,9c-4,0-5,3-5,4a.979.979,0,0,0,1,1ZM4.5,8A2.5,2.5,0,1,0,2,5.5,2.5,2.5,0,0,0,4.5,8Z" transform="translate(777 451)" fill="#111"/></g></svg>