<svg xmlns="http://www.w3.org/2000/svg" width="24" height="25" viewBox="0 0 24 25"><g transform="translate(-2107 23130)"><rect width="24" height="24" transform="translate(2107 -23130)" fill="#111" opacity="0"/><g transform="translate(2108 -23129)"><path d="M7,24H0V0H20V9H18V2H2V22H7Z"/><line x2="8" transform="translate(6 8)" fill="none" stroke="#000" stroke-miterlimit="10" stroke-width="2"/><path d="M22,18.75v-3.5H19.95a4.551,4.551,0,0,0-.21-.51l1.45-1.45-2.48-2.48-1.45,1.45q-.24-.1-.51-.21V10h-3.5v2.05a4.551,4.551,0,0,0-.51.21l-1.45-1.45L8.81,13.29l1.45,1.45q-.1.24-.21.51H8v3.5h2.05a4.551,4.551,0,0,0,.21.51L8.81,20.71l2.48,2.48,1.45-1.45q.24.1.51.21V24h3.5V21.95a4.551,4.551,0,0,0,.51-.21l1.45,1.45,2.48-2.48-1.45-1.45q.1-.24.21-.51H22ZM19.28,20.5l-.78.78L17.32,20.1l-.37.21a3.574,3.574,0,0,1-.99.41l-.41.13V22.5h-1.1V20.85l-.41-.1a3.684,3.684,0,0,1-.99-.45l-.37-.21L11.5,21.28l-.78-.78,1.18-1.18-.2-.37a3.906,3.906,0,0,1-.41-.99l-.14-.41H9.5v-1.1h1.65l.1-.41a3.684,3.684,0,0,1,.45-.99l.22-.37-1.2-1.18.78-.78,1.18,1.18.37-.2a3.574,3.574,0,0,1,.99-.41l.41-.14V11.5h1.1v1.65l.41.1a3.906,3.906,0,0,1,.99.41l.37.21,1.18-1.18.78.78-1.18,1.2.21.37a3.574,3.574,0,0,1,.41.99l.13.41H20.5v1.1H18.85l-.1.41a3.906,3.906,0,0,1-.41.99l-.21.37,1.16,1.18Z"/><path d="M15,14a3,3,0,1,0,3,3A3,3,0,0,0,15,14Zm0,4.5A1.5,1.5,0,1,1,16.5,17,1.5,1.5,0,0,1,15,18.5Z"/></g></g></svg>