<svg xmlns="http://www.w3.org/2000/svg" width="20" height="20" viewBox="0 0 20 20"><g transform="translate(8227 -19134)"><rect width="20" height="20" transform="translate(-8227 19134)" fill="#111111" opacity="0"/><path d="M39.5,27.6V21.072l-2.315,2.367A9.619,9.619,0,0,0,30.28,20.5a10,10,0,0,0,0,20,9.742,9.742,0,0,0,8.461-5.009l-2.17-1.28a7.244,7.244,0,0,1-6.292,3.725,7.438,7.438,0,0,1,0-14.872,7.153,7.153,0,0,1,5.135,2.185l-2.3,2.35H39.5Z" transform="translate(-8247.5 19113.5)" fill="#111111"/></g></svg>
