<svg xmlns="http://www.w3.org/2000/svg" width="16" height="16" viewBox="0 0 16 16"><g transform="translate(-837.001 -1526)"><rect width="16" height="16" transform="translate(837.001 1526)" fill="#d91f29" opacity="0"/><g transform="translate(837.488 1526.488)"><g transform="translate(0.512 0.512)"><path d="M5.02,3.6c.93-.94,1.62-1.62,1.77-1.77a4.124,4.124,0,0,1,.37-.33h0a4.515,4.515,0,0,1,6.35,6.34h0a4.124,4.124,0,0,1-.33.37L11.41,9.98" transform="translate(-0.494 -0.512)" fill="none" stroke="#000" stroke-miterlimit="10" stroke-width="1"/><path d="M3.6,5.02c-.94.93-1.62,1.62-1.77,1.77a4.124,4.124,0,0,0-.33.37h0a4.515,4.515,0,0,0,6.34,6.35h0a4.124,4.124,0,0,0,.37-.33l1.77-1.77" transform="translate(-0.512 -0.494)" fill="none" stroke="#000" stroke-miterlimit="10" stroke-width="1"/><rect width="1.002" height="9.052" transform="translate(9.847 3.435) rotate(45)"/></g></g></g></svg>