<svg xmlns="http://www.w3.org/2000/svg" width="20" height="20" viewBox="0 0 20 20"><g transform="translate(-0.316 0)"><circle cx="10" cy="10" r="10" transform="translate(0.316 0)" fill="#d91f29"/><path d="M2.258,10.462a.338.338,0,0,1-.466-.395L2.31,6.914.109,4.676a.379.379,0,0,1,.177-.633l3.061-.464L4.712.694a.313.313,0,0,1,.579,0L6.656,3.579l3.061.464a.378.378,0,0,1,.176.633l-2.2,2.237.519,3.153a.338.338,0,0,1-.466.395L5,8.958l-2.743,1.5Z" transform="translate(5.347 4.5)" fill="#fff"/></g></svg>