<svg xmlns="http://www.w3.org/2000/svg" width="24" height="24" viewBox="0 0 24 24"><rect width="24" height="24" fill="#d91f29" opacity="0"/><g transform="translate(-300 -196)"><path d="M308.631,218a6.828,6.828,0,0,1-4.691-1.817,5.927,5.927,0,0,1,0-8.772l8.677-8.114a4.989,4.989,0,0,1,6.711,0,4.24,4.24,0,0,1,0,6.274l-8.687,8.114a3,3,0,0,1-4.038,0,2.551,2.551,0,0,1,0-3.776l8.017-7.487,1.365,1.278-8.017,7.487a.825.825,0,0,0,0,1.22.97.97,0,0,0,1.306,0l8.687-8.113a2.513,2.513,0,0,0,0-3.719,2.957,2.957,0,0,0-3.979,0l-8.677,8.113a4.2,4.2,0,0,0,0,6.218,4.937,4.937,0,0,0,6.651,0l8.677-8.114L322,208.07l-8.677,8.113A6.829,6.829,0,0,1,308.631,218Z" fill="#111"/></g></svg>