<svg xmlns="http://www.w3.org/2000/svg" width="24" height="24" viewBox="0 0 24 24"><g transform="translate(-8715 -6034)"><rect width="24" height="24" transform="translate(8715 6034)" fill="#111" opacity="0"/><path d="M3.433-1.521h-1.9L1.177-.44H.027L1.981-5.687h1L4.947-.44H3.8ZM1.829-2.4H3.141l-.66-1.964Zm4.5,1.088h2.3V-.44H5.253V-5.687H6.334Zm3.812,0h2.3V-.44H9.065V-5.687h1.081Z" transform="translate(8717.973 6056.44)" fill="#111"/><path d="M18,5.622V17.491a2.536,2.536,0,0,1-2.571,2.5H14.143V18.741h1.286a1.268,1.268,0,0,0,1.286-1.249V5.622H14.143a1.9,1.9,0,0,1-1.929-1.874v-2.5H5.143A1.268,1.268,0,0,0,3.857,2.5v10H2.571V2.5A2.536,2.536,0,0,1,5.143,0h7.071Z" transform="translate(8718 6036)" fill="#111" fill-rule="evenodd"/></g></svg>