<svg xmlns="http://www.w3.org/2000/svg" width="20" height="20" viewBox="0 0 20 20"><g transform="translate(-493 -702)"><rect width="20" height="20" transform="translate(493 702)" fill="#111" opacity="0"/><g transform="translate(126 585)"><path d="M114,16h-4V13.652a6.082,6.082,0,0,1-.582-.242l-1.661,1.661-2.828-2.828,1.66-1.661a6.179,6.179,0,0,1-.241-.582H104V6h2.348a6.18,6.18,0,0,1,.241-.582l-1.66-1.661L107.757.929l1.661,1.661A6.082,6.082,0,0,1,110,2.348V0h4V2.348a6.081,6.081,0,0,1,.582.242L116.243.929l2.828,2.828-1.66,1.661a6.18,6.18,0,0,1,.241.582H120v4h-2.348a6.179,6.179,0,0,1-.241.582l1.66,1.661-2.828,2.828-1.661-1.661a6.081,6.081,0,0,1-.582.242Zm-2.667-1.333h1.333V12.643l.5-.129a4.664,4.664,0,0,0,1.2-.5l.445-.262,1.431,1.431.943-.943-1.431-1.431.263-.445a4.664,4.664,0,0,0,.5-1.2l.129-.5h2.025V7.333h-2.025l-.129-.5a4.664,4.664,0,0,0-.5-1.2l-.263-.445,1.431-1.431-.943-.943-1.431,1.431-.445-.262a4.664,4.664,0,0,0-1.2-.5l-.5-.129V1.333h-1.333V3.357l-.5.129a4.664,4.664,0,0,0-1.2.5l-.445.262-1.431-1.431-.943.943,1.431,1.431-.263.445a4.664,4.664,0,0,0-.5,1.2l-.129.5h-2.025V8.667h2.025l.129.5a4.664,4.664,0,0,0,.5,1.2l.263.445-1.431,1.431.943.943,1.431-1.431.445.262a4.664,4.664,0,0,0,1.2.5l.5.129Z" transform="translate(265 119)" fill="#111"/><path d="M114.352,13.7a3.352,3.352,0,1,1,3.352-3.352,3.356,3.356,0,0,1-3.352,3.352m0-5.364a2.011,2.011,0,1,0,2.011,2.011,2.014,2.014,0,0,0-2.011-2.011" transform="translate(262.648 116.648)" fill="#111"/></g></g></svg>