<svg xmlns="http://www.w3.org/2000/svg" width="24" height="24" viewBox="0 0 24 24"><rect width="24" height="24" fill="#d91f29" opacity="0"/><g transform="translate(-712 -135)"><rect width="24" height="24" transform="translate(712 135)" fill="#d91f29" opacity="0"/><g transform="translate(482 -89)"><path d="M237.836,238.917l1.924-1.2,1.972-1.228a.584.584,0,0,0,0-.982l-1.972-1.228-1.924-1.2a.551.551,0,0,0-.836.491v4.852A.552.552,0,0,0,237.836,238.917Z" fill="#111"/><path d="M248,234v-6H230v16h18v-6l6,4V230Zm-2,1.333V242H232V230h14Zm6,2.93L248.606,236,252,233.737Z" fill="#111"/></g></g></svg>