<svg xmlns="http://www.w3.org/2000/svg" width="20" height="20" viewBox="0 0 20 20"><rect width="20" height="20" fill="#111" opacity="0"/><g transform="translate(1 2)"><path d="M15.291,4.319C14.437,1.6,12.469,0,9.941,0A5,5,0,0,0,5.936,2.007,4.325,4.325,0,0,0,2.333,4.5,4.5,4.5,0,0,0,0,8.5,4.406,4.406,0,0,0,4.294,13H6V11H4.294A2.407,2.407,0,0,1,2,8.5,2.516,2.516,0,0,1,3.487,6.163a1,1,0,0,0,.559-.583A2.294,2.294,0,0,1,6.176,4l.158.009A1,1,0,0,0,7.2,3.624,3.2,3.2,0,0,1,9.941,2c2.466,0,3.311,2.335,3.559,3.339a1,1,0,0,0,.726.729A2.451,2.451,0,0,1,16,8.5,2.407,2.407,0,0,1,13.706,11H11.93v2h1.776A4.406,4.406,0,0,0,18,8.5a4.485,4.485,0,0,0-2.709-4.181" fill="#111"/><path d="M9.014,3.976,5.263,7.8,6.69,9.2,8,7.861,8,16h2L10,7.893l1.251,1.3L12.7,7.808Z" fill="#111"/></g></svg>