<svg xmlns="http://www.w3.org/2000/svg" width="16" height="16" viewBox="0 0 16 16"><rect width="15.8" height="16" transform="translate(0.2)" fill="#d91f29" opacity="0"/><path d="M231.407,406.2c.026-.067.049-.136.073-.2h2.32v-4h-2.32c-.024-.068-.047-.137-.073-.2-.01-.026-.018-.052-.029-.077-.041-.1-.089-.2-.136-.3l1.64-1.661-2.793-2.828-1.64,1.661c-.1-.047-.2-.1-.3-.138-.025-.011-.05-.019-.076-.029-.066-.026-.134-.05-.2-.074V396h-3.95v2.349c-.067.024-.135.048-.2.074-.026.01-.051.018-.076.029-.1.042-.2.091-.3.138l-1.64-1.661-2.793,2.828,1.64,1.661c-.047.1-.095.2-.136.3-.011.025-.019.051-.029.077-.026.067-.049.136-.073.2H218v4h2.32c.024.068.047.137.073.2.011.026.018.052.029.077.041.1.089.2.136.3l-1.64,1.662,2.793,2.828,1.64-1.661c.1.048.2.1.3.138.025.011.05.018.075.028.067.027.134.051.2.075V412h3.95v-2.349c.068-.024.135-.048.2-.075.025-.01.05-.017.075-.028.1-.042.2-.09.3-.138l1.64,1.661,2.793-2.828-1.64-1.662c.047-.1.095-.2.136-.3C231.39,406.256,231.4,406.23,231.407,406.2Zm-.863,1.085.942.954-1.4,1.414-.942-.954-.495-.5-.63.3-.047.023c-.066.032-.131.064-.189.088l-.054.02-.019.008-.169.062-.658.236V411h-1.975v-1.349l-.025-.716-.659-.235-.145-.054-.06-.022c-.068-.029-.133-.061-.2-.093l-.047-.023-.63-.3-.495.5-.942.954-1.4-1.414.942-.954.494-.5-.3-.638-.023-.049c-.032-.066-.064-.132-.087-.189l-.02-.055-.007-.02c-.021-.052-.039-.105-.061-.17l-.233-.667h-2.03v-2h1.332l.705-.02.233-.667c.017-.05.035-.1.054-.15l.022-.064c.028-.068.06-.134.092-.2l.023-.049.3-.638-.494-.5-.942-.954,1.4-1.414.942.954.494.5.63-.3.052-.025c.064-.031.128-.063.185-.086l.054-.02.02-.008c.048-.019.1-.037.168-.062l.658-.235V397h1.975v1.349l.02.714.659.236c.049.017.1.035.148.055l.063.022c.066.028.13.06.195.091l.052.025.63.3.494-.5.942-.954,1.4,1.414-.942.954-.494.5.3.638.023.049c.032.066.064.132.087.19l.02.055.008.02c.019.049.037.1.061.17l.232.666h2.03v2H231.48l-.7.012-.233.667c-.019.053-.037.106-.057.158l-.022.063c-.028.069-.06.135-.092.2l-.023.049-.3.638Z" transform="translate(-218 -396)"/><path d="M226,401a3,3,0,1,0,3,3A3,3,0,0,0,226,401Zm0,5a2,2,0,1,1,2-2A2,2,0,0,1,226,406Z" transform="translate(-218.1 -396)"/></svg>