<svg xmlns="http://www.w3.org/2000/svg" width="24" height="24" viewBox="0 0 24 24"><g transform="translate(-619 -1299)"><g transform="translate(620 1300)"><path d="M12,14H10c0-1.7.62-3.43,2.05-4.14.82-.41.95-.56.95-1.36,0-.94-.72-1.5-2-1.5A2.006,2.006,0,0,0,9,9H7a4,4,0,0,1,4-4c2.21,0,4,1.32,4,3.5a3.022,3.022,0,0,1-2.05,3.14C12.13,12.05,12,13.2,12,14Z" fill="#fff" fill-rule="evenodd"/><path d="M11,15a1,1,0,1,0,1,1,1,1,0,0,0-1-1Z" fill="#fff"/><path d="M11,0A11,11,0,1,0,22,11,10.994,10.994,0,0,0,11,0Zm0,20.1a9,9,0,1,1,9-9A9,9,0,0,1,11,20.1Z" fill="#fff" fill-rule="evenodd"/></g><rect width="24" height="24" transform="translate(619 1299)" fill="#fff" opacity="0"/></g></svg>