<svg xmlns="http://www.w3.org/2000/svg" width="24" height="24" viewBox="0 0 24 24"><path d="M691,833h-6v-3.522a9.129,9.129,0,0,1-.873-.363l-2.491,2.491-4.242-4.242,2.49-2.491a9.287,9.287,0,0,1-.362-.873H676v-6h3.522a9.287,9.287,0,0,1,.362-.873l-2.49-2.491,4.242-4.242,2.491,2.491a9.129,9.129,0,0,1,.873-.363V809h6v3.522a9.129,9.129,0,0,1,.873.363l2.491-2.491,4.242,4.242-2.49,2.491a9.287,9.287,0,0,1,.362.873H700v6h-3.522a9.287,9.287,0,0,1-.362.873l2.49,2.491-4.242,4.242-2.491-2.491a9.129,9.129,0,0,1-.873.363Zm-4-2h2v-3.036l.75-.193a7,7,0,0,0,1.8-.747l.668-.393,2.147,2.147,1.414-1.414-2.147-2.147.394-.668a7,7,0,0,0,.745-1.8l.193-.75H698v-2h-3.037l-.193-.75a7,7,0,0,0-.745-1.8l-.394-.668,2.147-2.147-1.414-1.414-2.147,2.147-.668-.393a7,7,0,0,0-1.8-.747l-.75-.193V811h-2v3.036l-.75.193a7,7,0,0,0-1.8.747l-.668.393-2.147-2.147-1.414,1.414,2.147,2.147-.394.668a7,7,0,0,0-.745,1.8l-.193.75H678v2h3.037l.193.75a7,7,0,0,0,.745,1.8l.394.668-2.147,2.147,1.414,1.414,2.147-2.147.668.393a7,7,0,0,0,1.8.747l.75.193Z" transform="translate(-676 -809)" fill="#111"/><g transform="translate(7 7)"><path d="M688,826a5,5,0,1,1,5-5A5.006,5.006,0,0,1,688,826Zm0-8a3,3,0,1,0,3,3A3,3,0,0,0,688,818Z" transform="translate(-683 -816)" fill="#111"/></g></svg>