<svg xmlns="http://www.w3.org/2000/svg" width="24" height="24" viewBox="0 0 24 24"><g transform="translate(-986 -75)"><rect width="24" height="24" transform="translate(986 75)" fill="#111" opacity="0"/><g transform="translate(-7750 -5895)"><path d="M18,5.622V17.491a2.536,2.536,0,0,1-2.571,2.5H14.143V18.741h1.286a1.268,1.268,0,0,0,1.286-1.249V5.622H14.143a1.9,1.9,0,0,1-1.929-1.874v-2.5H5.143A1.268,1.268,0,0,0,3.857,2.5v5H2.571v-5A2.536,2.536,0,0,1,5.143,0h7.071ZM4.368,18.542a1.4,1.4,0,0,0,.516,1.028,1.82,1.82,0,0,0,.615.315A2.876,2.876,0,0,0,6.353,20a2.767,2.767,0,0,0,1.1-.2,1.55,1.55,0,0,0,.693-.55,1.422,1.422,0,0,0,.24-.82,1.319,1.319,0,0,0-.172-.7,1.272,1.272,0,0,0-.482-.446,2.654,2.654,0,0,0-.728-.262l-.8-.18a1.266,1.266,0,0,1-.519-.22.458.458,0,0,1-.185-.374.586.586,0,0,1,.238-.48,1.04,1.04,0,0,1,.658-.19,1.221,1.221,0,0,1,.476.085.8.8,0,0,1,.316.226.691.691,0,0,1,.154.322h.964a1.34,1.34,0,0,0-.257-.707A1.547,1.547,0,0,0,7.412,15a2.39,2.39,0,0,0-1-.19,2.493,2.493,0,0,0-1,.187,1.578,1.578,0,0,0-.678.526,1.332,1.332,0,0,0-.244.8,1.3,1.3,0,0,0,.157.655,1.281,1.281,0,0,0,.453.459,2.238,2.238,0,0,0,.693.266l.795.18a1.578,1.578,0,0,1,.6.241.478.478,0,0,1,.2.407.618.618,0,0,1-.109.362.717.717,0,0,1-.328.241,1.4,1.4,0,0,1-.531.087A1.569,1.569,0,0,1,6,19.165a1.092,1.092,0,0,1-.319-.144.721.721,0,0,1-.328-.48H4.368ZM1.036,17.108a2.117,2.117,0,0,1,.131-.791,1.088,1.088,0,0,1,.388-.5,1.069,1.069,0,0,1,.611-.171,1.047,1.047,0,0,1,.512.121.889.889,0,0,1,.35.325,1.041,1.041,0,0,1,.154.476h.984v-.09a1.644,1.644,0,0,0-.6-1.2,1.868,1.868,0,0,0-.629-.34,2.426,2.426,0,0,0-.779-.121,2.309,2.309,0,0,0-1.171.279,1.825,1.825,0,0,0-.735.79A2.761,2.761,0,0,0,0,17.105v.622a2.755,2.755,0,0,0,.248,1.219,1.8,1.8,0,0,0,.735.782A2.358,2.358,0,0,0,2.159,20a2.393,2.393,0,0,0,1.009-.2,1.768,1.768,0,0,0,.707-.567,1.557,1.557,0,0,0,.291-.842v-.095H3.183a.979.979,0,0,1-.152.454.891.891,0,0,1-.35.312,1.151,1.151,0,0,1-.516.109A1.11,1.11,0,0,1,1.552,19a1.045,1.045,0,0,1-.384-.49,2.068,2.068,0,0,1-.131-.783v-.618Zm7.681,2a1.436,1.436,0,0,1-.143-.561h.982a.721.721,0,0,0,.328.48,1.071,1.071,0,0,0,.321.142,1.488,1.488,0,0,0,.41.051,1.407,1.407,0,0,0,.531-.087.717.717,0,0,0,.328-.241.621.621,0,0,0,.109-.362.478.478,0,0,0-.2-.407,1.569,1.569,0,0,0-.6-.241L10,17.7A2.249,2.249,0,0,1,9.3,17.43a1.266,1.266,0,0,1-.451-.459,1.3,1.3,0,0,1-.158-.655,1.332,1.332,0,0,1,.244-.8,1.6,1.6,0,0,1,.678-.527,2.5,2.5,0,0,1,1-.186,2.382,2.382,0,0,1,1,.19,1.543,1.543,0,0,1,.643.512,1.328,1.328,0,0,1,.257.707h-.964a.691.691,0,0,0-.154-.322.8.8,0,0,0-.316-.226,1.217,1.217,0,0,0-.476-.085,1.033,1.033,0,0,0-.658.19.584.584,0,0,0-.237.48.461.461,0,0,0,.184.375,1.266,1.266,0,0,0,.519.219l.8.179a2.738,2.738,0,0,1,.728.264,1.282,1.282,0,0,1,.482.447,1.3,1.3,0,0,1,.174.7,1.429,1.429,0,0,1-.242.82,1.555,1.555,0,0,1-.693.548,2.756,2.756,0,0,1-1.1.2,2.913,2.913,0,0,1-.855-.112,1.823,1.823,0,0,1-.615-.315,1.418,1.418,0,0,1-.373-.469Z" transform="translate(8739 5972)" fill="#111" fill-rule="evenodd"/><path d="M4.022,16.192a1.484,1.484,0,0,1-.14-.567h.966a.73.73,0,0,0,.322.485,1.029,1.029,0,0,0,.314.144,1.428,1.428,0,0,0,.4.052,1.342,1.342,0,0,0,.521-.088.706.706,0,0,0,.322-.244.64.64,0,0,0,.107-.366.489.489,0,0,0-.193-.412,1.51,1.51,0,0,0-.583-.244l-.781-.181a2.171,2.171,0,0,1-.68-.27,1.264,1.264,0,0,1-.443-.463A1.348,1.348,0,0,1,4,13.377a1.374,1.374,0,0,1,.24-.807,1.573,1.573,0,0,1,.666-.533,2.384,2.384,0,0,1,.98-.188,2.287,2.287,0,0,1,.985.192,1.54,1.54,0,0,1,.631.518,1.377,1.377,0,0,1,.252.714H6.808a.707.707,0,0,0-.151-.326.788.788,0,0,0-.312-.228,1.165,1.165,0,0,0-.466-.086,1,1,0,0,0-.648.192A.6.6,0,0,0,5,13.31a.474.474,0,0,0,.181.379,1.224,1.224,0,0,0,.511.221l.783.181a2.624,2.624,0,0,1,.714.266,1.274,1.274,0,0,1,.473.452,1.342,1.342,0,0,1,.17.707,1.474,1.474,0,0,1-.237.828,1.535,1.535,0,0,1-.68.554,2.639,2.639,0,0,1-1.083.2,2.785,2.785,0,0,1-.839-.114,1.772,1.772,0,0,1-.6-.318,1.426,1.426,0,0,1-.366-.473ZM.1,16.151a1.666,1.666,0,0,1-.1-.588H.966a.727.727,0,0,0,.092.341.63.63,0,0,0,.573.311.657.657,0,0,0,.533-.207.891.891,0,0,0,.174-.588V11.954h1v3.44a1.686,1.686,0,0,1-.451,1.269,1.7,1.7,0,0,1-1.242.435,2.007,2.007,0,0,1-.718-.119,1.384,1.384,0,0,1-.82-.828Z" transform="translate(8739 5968.677)" fill="#111" fill-rule="evenodd"/></g></g></svg>