<svg xmlns="http://www.w3.org/2000/svg" width="32" height="32" viewBox="0 0 32 32"><g transform="translate(-1487 -24)"><rect width="32" height="32" transform="translate(1487 24)" fill="#d91f29" opacity="0"/><g transform="translate(0 2)"><rect width="28" height="28" transform="translate(1489 24)" fill="#d91f29" opacity="0"/><g transform="translate(1491 24)"><path d="M16.591,23a4.092,4.092,0,0,1-8.182,0" fill="none" stroke="#000" stroke-miterlimit="10" stroke-width="2"/><path d="M12.5,2A7.271,7.271,0,0,1,20,9V19H5V9a7.271,7.271,0,0,1,7.5-7m0-2A9.26,9.26,0,0,0,3,9V21H22V9a9.26,9.26,0,0,0-9.5-9"/><rect width="25" height="2" transform="translate(0 19)"/></g></g></g></svg>