<svg xmlns="http://www.w3.org/2000/svg" width="28" height="28" viewBox="0 0 28 28"><g transform="translate(-784 -867)"><g transform="translate(784 867)" fill="#f1f1f5" stroke="#e5e5e5" stroke-width="1"><circle cx="14" cy="14" r="14" stroke="none"/><circle cx="14" cy="14" r="13.5" fill="none"/></g><g transform="translate(2 2)"><rect width="20" height="20" transform="translate(786 869)" fill="#111" opacity="0"/><g transform="translate(783 867)"><path d="M17.667,10.727V9.455A4.564,4.564,0,0,0,13,5,4.564,4.564,0,0,0,8.333,9.455v1.273H7V19H19V10.727Zm-8-1.273A3.264,3.264,0,0,1,13,6.273a3.264,3.264,0,0,1,3.333,3.182v1.273H9.667Zm8,8.273H8.333V12h9.333Z" transform="translate(0 0)" fill="#767676"/><circle cx="1" cy="1" r="1" transform="translate(12 14)" fill="#767676"/></g></g></g></svg>