<svg xmlns="http://www.w3.org/2000/svg" width="24" height="24" viewBox="0 0 24 24"><rect width="24" height="24" fill="red" opacity="0"/><g transform="translate(-631 -777)"><path d="M640.859,781a3.982,3.982,0,0,0-7.718,0H631v2h2.141a3.982,3.982,0,0,0,7.718,0H655v-2ZM637,784a2,2,0,1,1,2-2A2,2,0,0,1,637,784Z"/><path d="M651,785a3.991,3.991,0,0,0-3.859,3H631v2h16.141A3.994,3.994,0,1,0,651,785Zm0,6a2,2,0,1,1,2-2A2,2,0,0,1,651,791Z"/><path d="M646.859,795a3.982,3.982,0,0,0-7.718,0H631v2h8.141a3.982,3.982,0,0,0,7.718,0H655v-2ZM643,798a2,2,0,1,1,2-2A2,2,0,0,1,643,798Z"/></g></svg>