<svg xmlns="http://www.w3.org/2000/svg" width="24" height="24" viewBox="0 0 24 24"><rect width="24" height="24" fill="#d91f29" opacity="0"/><g transform="translate(1 2)"><path d="M677,912s8.266,8,11,8,11-8,11-8-8.267-8-11-8S677,912,677,912Zm11.01,6c-1.022-.072-4.62-2.734-8.2-6,3.569-3.255,7.155-5.91,8.19-6,1.036.089,4.622,2.744,8.19,6C692.611,915.266,689.015,917.928,688.01,918Z" transform="translate(-677 -902)" fill="#111"/><path d="M685,912a4,4,0,1,0,4-4A4,4,0,0,0,685,912Zm6,0a2,2,0,1,1-2-2A2,2,0,0,1,691,912Z" transform="translate(-678 -902)" fill="#111"/><path d="M695,902v2h4v4h2v-6Z" transform="translate(-679 -902)" fill="#111"/><path d="M679,904h4v-2h-6v6h2Z" transform="translate(-677 -902)" fill="#111"/><path d="M699,920h-4v2h6v-6h-2Z" transform="translate(-679 -902)" fill="#111"/><path d="M679,916h-2v6h6v-2h-4Z" transform="translate(-677 -902)" fill="#111"/></g></svg>