<svg xmlns="http://www.w3.org/2000/svg" width="24" height="24" viewBox="0 0 24 24"><g transform="translate(-1680 -172)"><rect width="24" height="24" transform="translate(1680 172)" fill="#d91f29" opacity="0"/><g transform="translate(1388 -24)"><path d="M304,200c-2.982,0-12,8-12,8s9.018,8,12,8,12-8,12-8S306.982,200,304,200Zm-8.935,8c3.893-3.256,7.8-5.91,8.935-6,1.131.089,5.043,2.743,8.935,6-3.9,3.266-7.828,5.928-8.924,6C302.895,213.928,298.97,211.267,295.065,208Z" fill="#111"/><path d="M304,204a4,4,0,1,0,4,4A4,4,0,0,0,304,204Zm0,6a2,2,0,1,1,2-2A2,2,0,0,1,304,210Z" fill="#111"/></g></g></svg>